<svg width="95" height="17" viewBox="0 0 95 17" fill="none" xmlns="http://www.w3.org/2000/svg">
<path d="M0.219727 16L5.35973 1.09998H8.87973L14.0197 16H11.0597L9.99973 12.8H4.23973L3.15973 16H0.219727ZM5.01973 10.4H9.21973L6.73973 2.97999H7.49973L5.01973 10.4Z" fill="white"/>
<path d="M22.1325 16.24C21.0659 16.24 20.0792 16.0467 19.1725 15.66C18.2659 15.2733 17.4725 14.7333 16.7925 14.04C16.1125 13.3467 15.5792 12.5333 15.1925 11.6C14.8192 10.6667 14.6325 9.64665 14.6325 8.53998C14.6325 7.43332 14.8125 6.41332 15.1725 5.47999C15.5459 4.53332 16.0659 3.71999 16.7325 3.03999C17.4125 2.34665 18.2059 1.81332 19.1125 1.43998C20.0192 1.05332 21.0059 0.859985 22.0725 0.859985C23.1392 0.859985 24.0925 1.03999 24.9325 1.39999C25.7859 1.75999 26.5059 2.23999 27.0925 2.83998C27.6792 3.42665 28.0992 4.07332 28.3525 4.77998L25.9325 5.93999C25.6525 5.16665 25.1792 4.53998 24.5125 4.05999C23.8459 3.57998 23.0325 3.33999 22.0725 3.33999C21.1392 3.33999 20.3125 3.55999 19.5925 3.99999C18.8859 4.43999 18.3325 5.04665 17.9325 5.81999C17.5459 6.59332 17.3525 7.49998 17.3525 8.53998C17.3525 9.57998 17.5525 10.4933 17.9525 11.28C18.3659 12.0533 18.9325 12.66 19.6525 13.1C20.3725 13.54 21.1992 13.76 22.1325 13.76C22.8925 13.76 23.5925 13.6133 24.2325 13.32C24.8725 13.0133 25.3859 12.5867 25.7725 12.04C26.1592 11.48 26.3525 10.82 26.3525 10.06V8.91999L27.5925 9.99999H22.0725V7.69999H29.0725V9.19999C29.0725 10.3467 28.8792 11.36 28.4925 12.24C28.1059 13.12 27.5792 13.86 26.9125 14.46C26.2592 15.0467 25.5192 15.4933 24.6925 15.8C23.8659 16.0933 23.0125 16.24 22.1325 16.24Z" fill="white"/>
<path d="M31.2249 16V1.09998H41.1249V3.49999H33.9449V7.31999H40.7249V9.71999H33.9449V13.6H41.1249V16H31.2249Z" fill="white"/>
<path d="M43.1194 16V1.09998H45.2394L53.4394 12.14L52.3394 12.36V1.09998H55.0594V16H52.9194L44.8394 4.87998L45.8394 4.65999V16H43.1194Z" fill="white"/>
<path d="M64.9436 16.24C63.877 16.24 62.8903 16.0467 61.9836 15.66C61.0903 15.2733 60.3036 14.7333 59.6236 14.04C58.957 13.3467 58.437 12.5333 58.0636 11.6C57.6903 10.6667 57.5036 9.64665 57.5036 8.53998C57.5036 7.43332 57.6836 6.41332 58.0436 5.47999C58.417 4.53332 58.937 3.71999 59.6036 3.03999C60.2836 2.34665 61.077 1.81332 61.9836 1.43998C62.8903 1.05332 63.877 0.859985 64.9436 0.859985C66.0103 0.859985 66.9636 1.03999 67.8036 1.39999C68.657 1.75999 69.377 2.23999 69.9636 2.83998C70.5503 3.42665 70.9703 4.07332 71.2236 4.77998L68.7836 5.91999C68.5036 5.17332 68.0303 4.55999 67.3636 4.07999C66.697 3.58665 65.8903 3.33999 64.9436 3.33999C64.0103 3.33999 63.1836 3.55999 62.4636 3.99999C61.757 4.43999 61.2036 5.04665 60.8036 5.81999C60.417 6.59332 60.2236 7.49998 60.2236 8.53998C60.2236 9.57998 60.417 10.4933 60.8036 11.28C61.2036 12.0533 61.757 12.66 62.4636 13.1C63.1836 13.54 64.0103 13.76 64.9436 13.76C65.8903 13.76 66.697 13.52 67.3636 13.04C68.0303 12.5467 68.5036 11.9267 68.7836 11.18L71.2236 12.32C70.9703 13.0267 70.5503 13.68 69.9636 14.28C69.377 14.8667 68.657 15.34 67.8036 15.7C66.9636 16.06 66.0103 16.24 64.9436 16.24Z" fill="white"/>
<path d="M73.4319 16V1.09998H76.1519V16H73.4319Z" fill="white"/>
<path d="M86.3578 16.24C85.2645 16.24 84.2445 16.0467 83.2979 15.66C82.3512 15.2733 81.5245 14.7333 80.8178 14.04C80.1112 13.3467 79.5579 12.5333 79.1579 11.6C78.7712 10.6533 78.5779 9.63332 78.5779 8.53998C78.5779 7.43332 78.7712 6.41332 79.1579 5.47999C79.5445 4.54665 80.0912 3.73332 80.7979 3.03999C81.5045 2.34665 82.3312 1.81332 83.2778 1.43998C84.2245 1.05332 85.2512 0.859985 86.3578 0.859985C87.4645 0.859985 88.4912 1.05332 89.4379 1.43998C90.3845 1.82665 91.2112 2.36665 91.9178 3.05999C92.6245 3.73999 93.1712 4.54665 93.5579 5.47999C93.9579 6.41332 94.1579 7.43332 94.1579 8.53998C94.1579 9.63332 93.9579 10.6533 93.5579 11.6C93.1579 12.5333 92.6045 13.3467 91.8979 14.04C91.1912 14.7333 90.3645 15.2733 89.4178 15.66C88.4845 16.0467 87.4645 16.24 86.3578 16.24ZM86.3578 13.76C87.0912 13.76 87.7645 13.6333 88.3779 13.38C88.9912 13.1133 89.5245 12.7467 89.9779 12.28C90.4445 11.8133 90.7978 11.26 91.0378 10.62C91.2912 9.97998 91.4179 9.28665 91.4179 8.53998C91.4179 7.79332 91.2912 7.10665 91.0378 6.47999C90.7978 5.83998 90.4445 5.28665 89.9779 4.81999C89.5245 4.33999 88.9912 3.97332 88.3779 3.71999C87.7645 3.46665 87.0912 3.33999 86.3578 3.33999C85.6378 3.33999 84.9712 3.46665 84.3578 3.71999C83.7445 3.97332 83.2045 4.33999 82.7379 4.81999C82.2845 5.28665 81.9312 5.83998 81.6778 6.47999C81.4245 7.10665 81.2979 7.79332 81.2979 8.53998C81.2979 9.28665 81.4245 9.97998 81.6778 10.62C81.9312 11.26 82.2845 11.8133 82.7379 12.28C83.2045 12.7467 83.7445 13.1133 84.3578 13.38C84.9712 13.6333 85.6378 13.76 86.3578 13.76Z" fill="white"/>
</svg>
