<svg width="16" height="17" viewBox="0 0 16 17" fill="none" xmlns="http://www.w3.org/2000/svg">
<path d="M13.5653 5.54256L6.49864 12.6092C6.43605 12.6723 6.35085 12.7078 6.26197 12.7078C6.17309 12.7078 6.08789 12.6723 6.02531 12.6092L2.43197 9.01587C2.36887 8.95334 2.33337 8.86814 2.33337 8.7792C2.33337 8.69034 2.36887 8.60514 2.43197 8.54254L2.89864 8.07587C2.96123 8.0128 3.04643 7.97727 3.13531 7.97727C3.22419 7.97727 3.30939 8.0128 3.37197 8.07587L6.25864 10.9625L12.6253 4.5959C12.7572 4.46804 12.9668 4.46804 13.0986 4.5959L13.5653 5.06923C13.6284 5.13182 13.6639 5.21702 13.6639 5.3059C13.6639 5.39478 13.6284 5.47997 13.5653 5.54256Z" fill="#131314"/>
</svg>
