<svg width="128" height="128" viewBox="0 0 128 128" fill="none" xmlns="http://www.w3.org/2000/svg">
<g filter="url(#filter0_d_82_5428)">
<path fill-rule="evenodd" clip-rule="evenodd" d="M115.2 64C115.2 35.7231 92.277 12.8 64 12.8C35.723 12.8 12.8 35.7231 12.8 64C12.8 92.277 35.723 115.2 64 115.2C92.277 115.2 115.2 92.277 115.2 64ZM57.6 64C57.6 86.4693 59.4092 105.558 61.9258 112.451C61.4506 111.959 60.937 111.279 60.395 110.362C58.9759 107.961 57.6425 104.381 56.5012 99.8159C54.2249 90.7106 52.8 78.0471 52.8 64C52.8 49.953 54.2249 37.2895 56.5012 28.1842C57.6425 23.6193 58.9759 20.0386 60.395 17.6377C60.937 16.7208 61.4506 16.0415 61.9258 15.5488C59.4092 22.4421 57.6 41.5308 57.6 64ZM67.6049 110.362C67.063 111.279 66.5493 111.959 66.0741 112.451C68.5907 105.558 70.4 86.4693 70.4 64C70.4 41.5308 68.5907 22.4421 66.0741 15.5487C66.5493 16.0415 67.063 16.7208 67.6049 17.6377C69.024 20.0386 70.3575 23.6193 71.4987 28.1842C73.775 37.2895 75.2 49.953 75.2 64C75.2 78.0471 73.775 90.7106 71.4987 99.8159C70.3575 104.381 69.024 107.961 67.6049 110.362ZM59.3258 111.679C58.7927 111.238 58.2581 110.718 57.7237 110.115C55.6027 107.723 53.6196 104.17 51.9217 99.6421C48.5303 90.5985 46.4 77.9975 46.4 64C46.4 50.0026 48.5303 37.4016 51.9217 28.358C53.6196 23.8303 55.6027 20.2773 57.7237 17.885C58.2581 17.2823 58.7927 16.7621 59.3258 16.3211C54.5683 23.7893 51.2 42.3212 51.2 64C51.2 85.6789 54.5683 104.211 59.3258 111.679ZM68.6742 111.679C69.2073 111.238 69.7418 110.718 70.2763 110.115C72.3973 107.723 74.3804 104.17 76.0783 99.6421C79.4697 90.5985 81.6 77.9975 81.6 64C81.6 50.0026 79.4697 37.4016 76.0783 28.358C74.3804 23.8303 72.3973 20.2773 70.2763 17.885C69.7418 17.2823 69.2073 16.7621 68.6742 16.3211C73.4316 23.7892 76.8 42.3212 76.8 64C76.8 85.6789 73.4316 104.211 68.6742 111.679ZM47.3291 99.4884C49.9279 104.686 52.9965 108.551 56.2944 110.91C49.527 102.994 44.8 84.9689 44.8 64C44.8 43.0312 49.527 25.0064 56.2944 17.0902C52.9965 19.4488 49.9279 23.3143 47.3291 28.5117C42.8293 37.5113 40 50.0561 40 64C40 77.944 42.8293 90.4888 47.3291 99.4884ZM80.6708 99.4884C78.0721 104.686 75.0035 108.551 71.7055 110.91C78.473 102.994 83.2 84.9689 83.2 64C83.2 43.0312 78.473 25.0064 71.7055 17.0902C75.0035 19.4488 78.0721 23.3143 80.6708 28.5117C85.1706 37.5113 88 50.0561 88 64C88 77.944 85.1706 90.4888 80.6708 99.4884ZM52.9149 110.164C49.1256 107.724 45.6633 104.05 42.7294 99.3559C37.1211 90.3827 33.6 77.8866 33.6 64C33.6 50.1135 37.1211 37.6174 42.7294 28.6442C45.6633 23.9498 49.1256 20.276 52.9149 17.8359C44.3273 26.0993 38.4 43.6653 38.4 64C38.4 84.3348 44.3273 101.901 52.9149 110.164ZM75.0851 110.164C78.8744 107.724 82.3366 104.05 85.2706 99.3559C90.8789 90.3827 94.4 77.8866 94.4 64C94.4 50.1135 90.8789 37.6174 85.2706 28.6442C82.3366 23.9498 78.8744 20.276 75.0851 17.8359C83.6727 26.0993 89.6 43.6653 89.6 64C89.6 84.3348 83.6727 101.901 75.0851 110.164ZM38.1271 99.2439C41.3304 103.515 45.0884 106.976 49.2258 109.428C38.989 100.888 32 83.75 32 64C32 44.2501 38.989 27.112 49.2258 18.5718C45.0884 21.0244 41.3304 24.4851 38.1271 28.7562C31.405 37.719 27.2 50.1743 27.2 64C27.2 77.8258 31.405 90.2811 38.1271 99.2439ZM89.8729 99.2439C86.6696 103.515 82.9116 106.976 78.7742 109.428C89.0109 100.888 96 83.75 96 64C96 44.2501 89.0109 27.112 78.7742 18.5718C82.9116 21.0244 86.6696 24.4851 89.8729 28.7562C96.595 37.719 100.8 50.1743 100.8 64C100.8 77.8258 96.595 90.2811 89.8729 99.2439ZM45.2185 108.669C30.8282 100.675 20.8 83.7753 20.8 64C20.8 44.2248 30.8282 27.3249 45.2185 19.3316C33.5103 28.1022 25.6 44.8194 25.6 64C25.6 83.1807 33.5103 99.8979 45.2185 108.669ZM82.7815 108.669C97.1717 100.675 107.2 83.7753 107.2 64C107.2 44.2248 97.1717 27.3249 82.7815 19.3316C94.4897 28.1022 102.4 44.8194 102.4 64C102.4 83.1807 94.4897 99.8979 82.7815 108.669ZM14.4 64C14.4 83.1173 25.2154 99.7084 41.0613 107.989C27.9682 99.0515 19.2 82.696 19.2 64C19.2 45.3041 27.9682 28.9486 41.0613 20.0116C25.2154 28.2917 14.4 44.8828 14.4 64ZM113.6 64C113.6 83.1173 102.785 99.7084 86.9387 107.989C100.032 99.0515 108.8 82.696 108.8 64C108.8 45.3041 100.032 28.9486 86.9387 20.0116C102.785 28.2917 113.6 44.8828 113.6 64ZM66.9378 100.005C68.0855 90.8243 68.8 78.0937 68.8 64C68.8 49.9064 68.0855 37.1758 66.9378 27.9946C66.3626 23.3928 65.6859 19.7441 64.9568 17.2771C64.9042 17.0992 64.8519 16.9294 64.8 16.7675V111.233C64.8519 111.071 64.9042 110.901 64.9568 110.723C65.6859 108.256 66.3626 104.607 66.9378 100.005ZM63.2 16.7675V111.233C63.1481 111.071 63.0958 110.901 63.0432 110.723C62.3141 108.256 61.6374 104.607 61.0621 100.005C59.9145 90.8243 59.2 78.0937 59.2 64C59.2 49.9064 59.9145 37.1758 61.0621 27.9946C61.6374 23.3928 62.3141 19.7441 63.0432 17.2771C63.0958 17.0992 63.1481 16.9294 63.2 16.7675Z" fill="#F5D105"/>
</g>
<defs>
<filter id="filter0_d_82_5428" x="0.799988" y="0.800049" width="126.4" height="126.4" filterUnits="userSpaceOnUse" color-interpolation-filters="sRGB">
<feFlood flood-opacity="0" result="BackgroundImageFix"/>
<feColorMatrix in="SourceAlpha" type="matrix" values="0 0 0 0 0 0 0 0 0 0 0 0 0 0 0 0 0 0 127 0" result="hardAlpha"/>
<feOffset/>
<feGaussianBlur stdDeviation="6"/>
<feComposite in2="hardAlpha" operator="out"/>
<feColorMatrix type="matrix" values="0 0 0 0 0.976471 0 0 0 0 0.898039 0 0 0 0 0.203922 0 0 0 0.6 0"/>
<feBlend mode="normal" in2="BackgroundImageFix" result="effect1_dropShadow_82_5428"/>
<feBlend mode="normal" in="SourceGraphic" in2="effect1_dropShadow_82_5428" result="shape"/>
</filter>
</defs>
</svg>
