<svg width="24" height="25" viewBox="0 0 24 25" fill="none" xmlns="http://www.w3.org/2000/svg">
<path d="M16.5 6.77734H13.5C12.9477 6.77734 12.5 7.22506 12.5 7.77734V10.7773H16.5C16.6137 10.7748 16.7216 10.8277 16.7892 10.9192C16.8568 11.0107 16.8758 11.1293 16.84 11.2373L16.1 13.4373C16.0318 13.6392 15.8431 13.7757 15.63 13.7773H12.5V21.2773C12.5 21.5534 12.2761 21.7773 12 21.7773H9.5C9.22386 21.7773 9 21.5534 9 21.2773V13.7773H7.5C7.22386 13.7773 7 13.5534 7 13.2773V11.2773C7 11.0012 7.22386 10.7773 7.5 10.7773H9V7.77734C9 5.5682 10.7909 3.77734 13 3.77734H16.5C16.7761 3.77734 17 4.0012 17 4.27734V6.27734C17 6.55348 16.7761 6.77734 16.5 6.77734Z" fill="white"/>
</svg>
