<svg width="20" height="20" viewBox="0 0 20 20" fill="none" xmlns="http://www.w3.org/2000/svg">
<path d="M15.0007 4.99999H13.334C13.334 3.15832 11.8423 1.66666 10.0007 1.66666C8.15898 1.66666 6.66732 3.15832 6.66732 4.99999H5.00065C4.08398 4.99999 3.33398 5.74999 3.33398 6.66666V16.6667C3.33398 17.5833 4.08398 18.3333 5.00065 18.3333H15.0007C15.9173 18.3333 16.6673 17.5833 16.6673 16.6667V6.66666C16.6673 5.74999 15.9173 4.99999 15.0007 4.99999ZM10.0007 3.33332C10.9173 3.33332 11.6673 4.08332 11.6673 4.99999H8.33398C8.33398 4.08332 9.08398 3.33332 10.0007 3.33332ZM15.0007 16.6667H5.00065V6.66666H6.66732V8.33332C6.66732 8.79166 7.04232 9.16666 7.50065 9.16666C7.95898 9.16666 8.33398 8.79166 8.33398 8.33332V6.66666H11.6673V8.33332C11.6673 8.79166 12.0423 9.16666 12.5007 9.16666C12.959 9.16666 13.334 8.79166 13.334 8.33332V6.66666H15.0007V16.6667Z" fill="white"/>
</svg>
