<svg width="24" height="25" viewBox="0 0 24 25" fill="none" xmlns="http://www.w3.org/2000/svg">
<path fill-rule="evenodd" clip-rule="evenodd" d="M16 3.77734H8C5.23858 3.77734 3 6.01592 3 8.77734V16.7773C3 19.5387 5.23858 21.7773 8 21.7773H16C18.7614 21.7773 21 19.5387 21 16.7773V8.77734C21 6.01592 18.7614 3.77734 16 3.77734ZM19.25 16.7773C19.2445 18.5699 17.7926 20.0218 16 20.0273H8C6.20735 20.0218 4.75549 18.5699 4.75 16.7773V8.77734C4.75549 6.98469 6.20735 5.53283 8 5.52734H16C17.7926 5.53283 19.2445 6.98469 19.25 8.77734V16.7773ZM16.75 9.02734C17.3023 9.02734 17.75 8.57962 17.75 8.02734C17.75 7.47506 17.3023 7.02734 16.75 7.02734C16.1977 7.02734 15.75 7.47506 15.75 8.02734C15.75 8.57962 16.1977 9.02734 16.75 9.02734ZM12 8.27734C9.51472 8.27734 7.5 10.2921 7.5 12.7773C7.5 15.2626 9.51472 17.2773 12 17.2773C14.4853 17.2773 16.5 15.2626 16.5 12.7773C16.5027 11.583 16.0294 10.4369 15.1849 9.59242C14.3404 8.74793 13.1943 8.27468 12 8.27734ZM9.25 12.7773C9.25 14.2961 10.4812 15.5273 12 15.5273C13.5188 15.5273 14.75 14.2961 14.75 12.7773C14.75 11.2585 13.5188 10.0273 12 10.0273C10.4812 10.0273 9.25 11.2585 9.25 12.7773Z" fill="white"/>
</svg>
