<svg width="128" height="128" viewBox="0 0 128 128" fill="none" xmlns="http://www.w3.org/2000/svg">
<g filter="url(#filter0_d_82_5406)">
<path d="M114.622 43.52C114.622 50.2525 109.149 56.5032 99.9455 61.1052C90.7761 65.6899 78.0682 68.5423 64 68.5423C49.9318 68.5423 37.2239 65.6899 28.0545 61.1052C18.8506 56.5032 13.3778 50.2525 13.3778 43.52C13.3778 36.7875 18.8506 30.5369 28.0545 25.9349C37.2239 21.3502 49.9318 18.4978 64 18.4978C78.0682 18.4978 90.7761 21.3502 99.9455 25.9349C109.149 30.5369 114.622 36.7875 114.622 43.52Z" stroke="#FA4A32" stroke-width="1.15556"/>
<path d="M114.622 46.3644C114.622 53.0969 109.149 59.3476 99.9455 63.9496C90.7761 68.5343 78.0682 71.3866 64 71.3866C49.9318 71.3866 37.2239 68.5343 28.0545 63.9496C18.8506 59.3476 13.3778 53.0969 13.3778 46.3644C13.3778 39.6319 18.8506 33.3812 28.0545 28.7793C37.2239 24.1946 49.9318 21.3422 64 21.3422C78.0682 21.3422 90.7761 24.1946 99.9455 28.7793C109.149 33.3812 114.622 39.6319 114.622 46.3644Z" stroke="#FA4A32" stroke-width="1.15556"/>
<path d="M114.622 49.2089C114.622 55.9414 109.149 62.1921 99.9455 66.794C90.7761 71.3787 78.0682 74.2311 64 74.2311C49.9318 74.2311 37.2239 71.3787 28.0545 66.794C18.8506 62.1921 13.3778 55.9414 13.3778 49.2089C13.3778 42.4764 18.8506 36.2257 28.0545 31.6237C37.2239 27.039 49.9318 24.1867 64 24.1867C78.0682 24.1867 90.7761 27.039 99.9455 31.6237C109.149 36.2257 114.622 42.4764 114.622 49.2089Z" stroke="#FA4A32" stroke-width="1.15556"/>
<path d="M114.622 52.0532C114.622 58.7857 109.149 65.0364 99.9455 69.6384C90.7761 74.2231 78.0682 77.0755 64 77.0755C49.9318 77.0755 37.2239 74.2231 28.0545 69.6384C18.8506 65.0364 13.3778 58.7857 13.3778 52.0532C13.3778 45.3207 18.8506 39.0701 28.0545 34.4681C37.2239 29.8834 49.9318 27.031 64 27.031C78.0682 27.031 90.7761 29.8834 99.9455 34.4681C109.149 39.0701 114.622 45.3207 114.622 52.0532Z" stroke="#FA4A32" stroke-width="1.15556"/>
<path d="M114.622 54.8979C114.622 61.6304 109.149 67.881 99.9455 72.483C90.7761 77.0677 78.0682 79.9201 64 79.9201C49.9318 79.9201 37.2239 77.0677 28.0545 72.483C18.8506 67.881 13.3778 61.6304 13.3778 54.8979C13.3778 48.1654 18.8506 41.9147 28.0545 37.3127C37.2239 32.728 49.9318 29.8756 64 29.8756C78.0682 29.8756 90.7761 32.728 99.9455 37.3127C109.149 41.9147 114.622 48.1654 114.622 54.8979Z" stroke="#FA4A32" stroke-width="1.15556"/>
<path d="M114.622 57.7422C114.622 64.4747 109.149 70.7254 99.9455 75.3274C90.7761 79.9121 78.0682 82.7644 64 82.7644C49.9318 82.7644 37.2239 79.9121 28.0545 75.3274C18.8506 70.7254 13.3778 64.4747 13.3778 57.7422C13.3778 51.0097 18.8506 44.759 28.0545 40.1571C37.2239 35.5724 49.9318 32.72 64 32.72C78.0682 32.72 90.7761 35.5724 99.9455 40.1571C109.149 44.759 114.622 51.0097 114.622 57.7422Z" stroke="#FA4A32" stroke-width="1.15556"/>
<path d="M114.622 60.5867C114.622 67.3192 109.149 73.5699 99.9455 78.1718C90.7761 82.7565 78.0682 85.6089 64 85.6089C49.9318 85.6089 37.2239 82.7565 28.0545 78.1718C18.8506 73.5699 13.3778 67.3192 13.3778 60.5867C13.3778 53.8542 18.8506 47.6035 28.0545 43.0015C37.2239 38.4168 49.9318 35.5645 64 35.5645C78.0682 35.5645 90.7761 38.4168 99.9455 43.0015C109.149 47.6035 114.622 53.8542 114.622 60.5867Z" stroke="#FA4A32" stroke-width="1.15556"/>
<path d="M114.622 63.4311C114.622 70.1636 109.149 76.4142 99.9455 81.0162C90.7761 85.6009 78.0682 88.4533 64 88.4533C49.9318 88.4533 37.2239 85.6009 28.0545 81.0162C18.8506 76.4142 13.3778 70.1636 13.3778 63.4311C13.3778 56.6986 18.8506 50.4479 28.0545 45.8459C37.2239 41.2612 49.9318 38.4088 64 38.4088C78.0682 38.4088 90.7761 41.2612 99.9455 45.8459C109.149 50.4479 114.622 56.6986 114.622 63.4311Z" stroke="#FA4A32" stroke-width="1.15556"/>
<path d="M114.622 66.2755C114.622 73.008 109.149 79.2587 99.9455 83.8607C90.7761 88.4454 78.0682 91.2978 64 91.2978C49.9318 91.2978 37.2239 88.4454 28.0545 83.8607C18.8506 79.2587 13.3778 73.008 13.3778 66.2755C13.3778 59.543 18.8506 53.2924 28.0545 48.6904C37.2239 44.1057 49.9318 41.2533 64 41.2533C78.0682 41.2533 90.7761 44.1057 99.9455 48.6904C109.149 53.2924 114.622 59.543 114.622 66.2755Z" stroke="#FA4A32" stroke-width="1.15556"/>
<path d="M114.622 69.12C114.622 75.8525 109.149 82.1032 99.9455 86.7052C90.7761 91.2899 78.0682 94.1422 64 94.1422C49.9318 94.1422 37.2239 91.2899 28.0545 86.7052C18.8506 82.1032 13.3778 75.8525 13.3778 69.12C13.3778 62.3875 18.8506 56.1368 28.0545 51.5349C37.2239 46.9502 49.9318 44.0978 64 44.0978C78.0682 44.0978 90.7761 46.9502 99.9455 51.5349C109.149 56.1368 114.622 62.3875 114.622 69.12Z" stroke="#FA4A32" stroke-width="1.15556"/>
<path d="M114.622 71.9644C114.622 78.6969 109.149 84.9476 99.9455 89.5495C90.7761 94.1342 78.0682 96.9866 64 96.9866C49.9318 96.9866 37.2239 94.1342 28.0545 89.5495C18.8506 84.9476 13.3778 78.6969 13.3778 71.9644C13.3778 65.2319 18.8506 58.9812 28.0545 54.3792C37.2239 49.7945 49.9318 46.9422 64 46.9422C78.0682 46.9422 90.7761 49.7945 99.9455 54.3792C109.149 58.9812 114.622 65.2319 114.622 71.9644Z" stroke="#FA4A32" stroke-width="1.15556"/>
<path d="M114.622 74.8089C114.622 81.5414 109.149 87.792 99.9455 92.394C90.7761 96.9787 78.0682 99.8311 64 99.8311C49.9318 99.8311 37.2239 96.9787 28.0545 92.394C18.8506 87.792 13.3778 81.5414 13.3778 74.8089C13.3778 68.0764 18.8506 61.8257 28.0545 57.2237C37.2239 52.639 49.9318 49.7866 64 49.7866C78.0682 49.7866 90.7761 52.639 99.9455 57.2237C109.149 61.8257 114.622 68.0764 114.622 74.8089Z" stroke="#FA4A32" stroke-width="1.15556"/>
<path d="M114.622 77.6532C114.622 84.3857 109.149 90.6364 99.9455 95.2384C90.7761 99.8231 78.0682 102.675 64 102.675C49.9318 102.675 37.2239 99.8231 28.0545 95.2384C18.8506 90.6364 13.3778 84.3857 13.3778 77.6532C13.3778 70.9207 18.8506 64.67 28.0545 60.0681C37.2239 55.4834 49.9318 52.631 64 52.631C78.0682 52.631 90.7761 55.4834 99.9455 60.0681C109.149 64.67 114.622 70.9207 114.622 77.6532Z" stroke="#FA4A32" stroke-width="1.15556"/>
<path d="M114.622 80.4977C114.622 87.2302 109.149 93.4809 99.9455 98.0829C90.7761 102.668 78.0682 105.52 64 105.52C49.9318 105.52 37.2239 102.668 28.0545 98.0829C18.8506 93.4809 13.3778 87.2302 13.3778 80.4977C13.3778 73.7652 18.8506 67.5145 28.0545 62.9126C37.2239 58.3279 49.9318 55.4755 64 55.4755C78.0682 55.4755 90.7761 58.3279 99.9455 62.9126C109.149 67.5145 114.622 73.7652 114.622 80.4977Z" stroke="#FA4A32" stroke-width="1.15556"/>
<path d="M114.622 83.3422C114.622 90.0747 109.149 96.3254 99.9455 100.927C90.7761 105.512 78.0682 108.364 64 108.364C49.9318 108.364 37.2239 105.512 28.0545 100.927C18.8506 96.3254 13.3778 90.0747 13.3778 83.3422C13.3778 76.6097 18.8506 70.359 28.0545 65.757C37.2239 61.1723 49.9318 58.32 64 58.32C78.0682 58.32 90.7761 61.1723 99.9455 65.757C109.149 70.359 114.622 76.6097 114.622 83.3422Z" stroke="#FA4A32" stroke-width="1.15556"/>
</g>
<defs>
<filter id="filter0_d_82_5406" x="0.799995" y="5.92004" width="126.4" height="115.022" filterUnits="userSpaceOnUse" color-interpolation-filters="sRGB">
<feFlood flood-opacity="0" result="BackgroundImageFix"/>
<feColorMatrix in="SourceAlpha" type="matrix" values="0 0 0 0 0 0 0 0 0 0 0 0 0 0 0 0 0 0 127 0" result="hardAlpha"/>
<feOffset/>
<feGaussianBlur stdDeviation="6"/>
<feComposite in2="hardAlpha" operator="out"/>
<feColorMatrix type="matrix" values="0 0 0 0 0.980392 0 0 0 0 0.290196 0 0 0 0 0.196078 0 0 0 0.6 0"/>
<feBlend mode="normal" in2="BackgroundImageFix" result="effect1_dropShadow_82_5406"/>
<feBlend mode="normal" in="SourceGraphic" in2="effect1_dropShadow_82_5406" result="shape"/>
</filter>
</defs>
</svg>
